<svg xmlns="http://www.w3.org/2000/svg" viewBox="-16 -16 585 151" fill="none">
  <path d="M10.15 46.71 3.64 51.11Q5.84 55.51 9.33 59.39Q12.83 63.27 17.47 65.61Q22.11 67.96 27.57 67.96Q31.59 67.96 35.27 66.62Q38.96 65.28 41.88 62.79Q44.79 60.3 46.47 56.76Q48.14 53.22 48.14 48.81Q48.14 44.22 46.52 40.92Q44.89 37.62 42.35 35.27Q39.82 32.93 36.85 31.39Q33.88 29.86 31.2 28.91Q25.36 26.9 21.97 24.84Q18.57 22.78 17.13 20.43Q15.7 18.09 15.7 15.31Q15.7 12.06 18.19 9.43Q20.67 6.8 26.13 6.8Q30.05 6.8 32.78 8.33Q35.51 9.86 37.42 12.25Q39.34 14.64 40.58 17.13L47.57 13.11Q45.94 9.57 43.07 6.36Q40.2 3.16 36.13 1.1Q32.06 -0.96 26.61 -0.96Q20.96 -0.96 16.56 1.29Q12.16 3.54 9.67 7.47Q7.18 11.39 7.18 16.37Q7.18 20.96 8.95 24.12Q10.72 27.28 13.5 29.43Q16.27 31.59 19.33 32.97Q22.4 34.36 24.89 35.22Q28.71 36.56 32.11 38.24Q35.51 39.91 37.62 42.59Q39.72 45.27 39.72 49.77Q39.72 54.37 36.47 57.33Q33.21 60.3 27.85 60.3Q23.83 60.3 20.67 58.58Q17.52 56.85 14.98 53.79Q12.44 50.73 10.15 46.71Z M108.64 46.9H144.05L141.18 39.24H111.51ZM126.15 15.12 137.64 42.11 138.4 44.03 148.17 67H157.26L126.15 -3.35L95.04 67H104.14L114.09 43.45L114.86 41.73Z M258.24 0V49.87L207.51 -3.35V67H215.64V17.13L266.37 70.35V0Z M347.73 51.88 325.72 0H316.62L347.73 70.35L378.84 0H369.74Z M429.09 0V67H437.22V0Z M499.44 33.5Q499.44 25.65 502.93 19.76Q506.42 13.88 512.07 10.53Q517.72 7.18 524.32 7.18Q529.11 7.18 533.08 8.42Q537.05 9.67 540.31 11.92Q543.56 14.17 545.86 17.13V6.41Q541.65 2.68 536.67 0.86Q531.69 -0.96 524.32 -0.96Q517.34 -0.96 511.26 1.58Q505.18 4.12 500.59 8.76Q495.99 13.4 493.41 19.72Q490.82 26.03 490.82 33.5Q490.82 40.97 493.41 47.28Q495.99 53.6 500.59 58.24Q505.18 62.88 511.26 65.42Q517.34 67.96 524.32 67.96Q531.69 67.96 536.67 66.14Q541.65 64.32 545.86 60.59V49.87Q543.56 52.83 540.31 55.08Q537.05 57.33 533.08 58.58Q529.11 59.82 524.32 59.82Q517.72 59.82 512.07 56.47Q506.42 53.12 502.93 47.19Q499.44 41.25 499.44 33.5Z" fill="#EDE3CE"/>
  <path d="M246.67 113.62Q246.67 114.99 247.64 116Q248.6 117 250.15 117Q251.69 117 252.64 116Q253.59 114.99 253.59 113.62Q253.59 112.2 252.64 111.2Q251.69 110.2 250.15 110.2Q248.6 110.2 247.64 111.2Q246.67 112.2 246.67 113.62Z M260.19 93.13V116.11H266.56V93.13ZM264.26 98.28H268.7Q270.21 98.28 271.03 98.94Q271.85 99.6 271.85 100.81Q271.85 102.06 271.03 102.72Q270.21 103.37 268.7 103.37H264.26V108.49H268.7Q271.85 108.49 273.9 107.58Q275.95 106.66 276.95 104.92Q277.95 103.18 277.95 100.81Q277.95 98.42 276.95 96.71Q275.95 95 273.9 94.07Q271.85 93.13 268.7 93.13H264.26Z M285.21 106.95H303.07V101.27H285.21ZM299.1 93.13V116.11H305.47V93.13ZM283.67 93.13V116.11H290.04V93.13Z" fill="#EDE3CE"/>
</svg>
